<mxfile host="app.diagrams.net" modified="2023-10-23T17:11:25.857Z" agent="Mozilla/5.0 (Windows NT 10.0; Win64; x64) AppleWebKit/537.36 (KHTML, like Gecko) Chrome/118.0.0.0 Safari/537.36" etag="0SEZ-MTzUIvd1DmaIt8H" version="22.0.6" type="github">
  <diagram name="Page-1" id="LebmcEkq6MJFd4mQwWVV">
    <mxGraphModel dx="1050" dy="577" grid="1" gridSize="10" guides="1" tooltips="1" connect="1" arrows="1" fold="1" page="1" pageScale="1" pageWidth="850" pageHeight="1100" math="0" shadow="0">
      <root>
        <mxCell id="0" />
        <mxCell id="1" parent="0" />
        <mxCell id="XDOIUHzFpuDiwROvk6_G-1" value="&lt;font style=&quot;font-size: 42px;&quot;&gt;LIBRARY MANAGMENT SYSTEM&lt;/font&gt;" style="text;html=1;strokeColor=none;fillColor=none;align=center;verticalAlign=middle;whiteSpace=wrap;rounded=0;" vertex="1" parent="1">
          <mxGeometry x="75" y="100" width="700" height="30" as="geometry" />
        </mxCell>
        <mxCell id="XDOIUHzFpuDiwROvk6_G-3" value="" style="endArrow=classic;html=1;rounded=0;" edge="1" parent="1">
          <mxGeometry width="50" height="50" relative="1" as="geometry">
            <mxPoint x="400" y="160" as="sourcePoint" />
            <mxPoint x="400" y="280" as="targetPoint" />
          </mxGeometry>
        </mxCell>
        <mxCell id="XDOIUHzFpuDiwROvk6_G-4" value="" style="rounded=0;whiteSpace=wrap;html=1;" vertex="1" parent="1">
          <mxGeometry x="330" y="280" width="140" height="60" as="geometry" />
        </mxCell>
        <mxCell id="XDOIUHzFpuDiwROvk6_G-5" value="&lt;font style=&quot;font-size: 18px;&quot;&gt;SUPER ADMIN&lt;/font&gt;" style="text;html=1;strokeColor=none;fillColor=none;align=center;verticalAlign=middle;whiteSpace=wrap;rounded=0;" vertex="1" parent="1">
          <mxGeometry x="332.5" y="295" width="135" height="30" as="geometry" />
        </mxCell>
        <mxCell id="XDOIUHzFpuDiwROvk6_G-6" value="" style="endArrow=none;html=1;rounded=0;entryX=0.5;entryY=1;entryDx=0;entryDy=0;" edge="1" parent="1" target="XDOIUHzFpuDiwROvk6_G-4">
          <mxGeometry width="50" height="50" relative="1" as="geometry">
            <mxPoint x="400" y="400" as="sourcePoint" />
            <mxPoint x="450" y="390" as="targetPoint" />
          </mxGeometry>
        </mxCell>
        <mxCell id="XDOIUHzFpuDiwROvk6_G-7" value="" style="endArrow=classic;startArrow=classic;html=1;rounded=0;" edge="1" parent="1">
          <mxGeometry width="50" height="50" relative="1" as="geometry">
            <mxPoint x="160" y="480" as="sourcePoint" />
            <mxPoint x="680" y="480" as="targetPoint" />
            <Array as="points">
              <mxPoint x="160" y="400" />
              <mxPoint x="680" y="400" />
            </Array>
          </mxGeometry>
        </mxCell>
        <mxCell id="XDOIUHzFpuDiwROvk6_G-8" value="" style="rounded=0;whiteSpace=wrap;html=1;" vertex="1" parent="1">
          <mxGeometry x="620" y="480" width="120" height="60" as="geometry" />
        </mxCell>
        <mxCell id="XDOIUHzFpuDiwROvk6_G-9" value="LIBRARIAN&lt;br&gt;(ADMIN)" style="text;html=1;strokeColor=none;fillColor=none;align=center;verticalAlign=middle;whiteSpace=wrap;rounded=0;" vertex="1" parent="1">
          <mxGeometry x="565" y="485" width="230" height="50" as="geometry" />
        </mxCell>
        <mxCell id="XDOIUHzFpuDiwROvk6_G-11" value="" style="rounded=0;whiteSpace=wrap;html=1;" vertex="1" parent="1">
          <mxGeometry x="100" y="480" width="120" height="60" as="geometry" />
        </mxCell>
        <mxCell id="XDOIUHzFpuDiwROvk6_G-10" value="STUDENT" style="text;html=1;strokeColor=none;fillColor=none;align=center;verticalAlign=middle;whiteSpace=wrap;rounded=0;" vertex="1" parent="1">
          <mxGeometry x="45" y="485" width="230" height="50" as="geometry" />
        </mxCell>
        <mxCell id="XDOIUHzFpuDiwROvk6_G-16" value="TASKS CAN DO" style="swimlane;whiteSpace=wrap;html=1;" vertex="1" parent="1">
          <mxGeometry x="580" y="610" width="210" height="200" as="geometry" />
        </mxCell>
        <mxCell id="XDOIUHzFpuDiwROvk6_G-20" value="&lt;font style=&quot;font-size: 18px;&quot;&gt;1.ADD BOOKS&lt;br&gt;2.VIEW BOOK&lt;br&gt;3.ADD STUDENT&lt;br&gt;4.ISSUE BOOK&lt;br&gt;5.APPROVE REQUEST&lt;/font&gt;" style="text;html=1;strokeColor=none;fillColor=none;align=left;verticalAlign=middle;whiteSpace=wrap;rounded=0;" vertex="1" parent="XDOIUHzFpuDiwROvk6_G-16">
          <mxGeometry x="5" y="45" width="200" height="110" as="geometry" />
        </mxCell>
        <mxCell id="XDOIUHzFpuDiwROvk6_G-18" value="" style="endArrow=classic;html=1;rounded=0;exitX=0.5;exitY=1;exitDx=0;exitDy=0;entryX=0.47;entryY=-0.005;entryDx=0;entryDy=0;entryPerimeter=0;" edge="1" parent="1" source="XDOIUHzFpuDiwROvk6_G-8" target="XDOIUHzFpuDiwROvk6_G-16">
          <mxGeometry width="50" height="50" relative="1" as="geometry">
            <mxPoint x="400" y="740" as="sourcePoint" />
            <mxPoint x="450" y="690" as="targetPoint" />
          </mxGeometry>
        </mxCell>
        <mxCell id="XDOIUHzFpuDiwROvk6_G-21" value="" style="endArrow=classic;html=1;rounded=0;exitX=0.5;exitY=1;exitDx=0;exitDy=0;" edge="1" parent="1" source="XDOIUHzFpuDiwROvk6_G-11">
          <mxGeometry width="50" height="50" relative="1" as="geometry">
            <mxPoint x="400" y="700" as="sourcePoint" />
            <mxPoint x="160" y="610" as="targetPoint" />
          </mxGeometry>
        </mxCell>
        <mxCell id="XDOIUHzFpuDiwROvk6_G-22" value="TASKS CAN DO" style="swimlane;whiteSpace=wrap;html=1;" vertex="1" parent="1">
          <mxGeometry x="60" y="610" width="200" height="200" as="geometry" />
        </mxCell>
        <mxCell id="XDOIUHzFpuDiwROvk6_G-23" value="&lt;font style=&quot;font-size: 18px;&quot;&gt;1.VIEW PROFILE&lt;br&gt;2.BOOK REQUEST&lt;br&gt;3.BOOK VIEW&lt;br&gt;4.FINE&lt;br&gt;&lt;/font&gt;" style="text;html=1;strokeColor=none;fillColor=none;align=left;verticalAlign=middle;whiteSpace=wrap;rounded=0;" vertex="1" parent="XDOIUHzFpuDiwROvk6_G-22">
          <mxGeometry x="10" y="85" width="160" height="30" as="geometry" />
        </mxCell>
      </root>
    </mxGraphModel>
  </diagram>
</mxfile>
